<?xml version="1.0" encoding="utf-8"?>
<!-- Generator: Adobe Illustrator 25.3.1, SVG Export Plug-In . SVG Version: 6.00 Build 0)  -->
<svg version="1.1" xmlns="http://www.w3.org/2000/svg" xmlns:xlink="http://www.w3.org/1999/xlink" x="0px" y="0px" width="1366px"
	 height="768px" viewBox="0 0 1366 768" style="enable-background:new 0 0 1366 768;" xml:space="preserve">
<style type="text/css">
	.st0{fill:none;}
	.st1{display:none;}
	.st2{display:inline;}
	.st3{font-family:'Poppins-SemiBold';}
	.st4{font-size:400px;}
	.st5{font-size:425px;}
</style>
<g id="Layer_1">
	<path class="st0" d="M368.549,277.185c12.8-1.062,22.462-4.531,29-10.4c6.531-5.862,9.8-13.731,9.8-23.6
		c0-11.2-1.2-27.331-3.6-48.4c-2.669-25.062-4-43.331-4-54.8c0-20.8,6.2-37,18.6-48.6c12.4-11.6,28.863-17.4,49.4-17.4h27.6v47.2
		h-16.8c-16.538,0-24.8,7.869-24.8,23.6c0,7.469,1.062,22.4,3.2,44.8c0.263,2.668,0.931,10.2,2,22.6c1.062,12.4,1.6,23.4,1.6,33
		c0,14.138-3.469,25.869-10.4,35.2c-6.938,9.337-17.469,15.337-31.6,18v0.8c14.131,2.938,24.663,9,31.6,18.2
		c6.931,9.2,10.4,21,10.4,35.4c0,9.069-0.538,19.8-1.6,32.2c-1.069,12.4-1.737,20.2-2,23.4c-2.137,22.4-3.2,37.2-3.2,44.4
		c0,8.262,2,14.262,6,18c4,3.73,10.262,5.6,18.8,5.6h16.8v47.6h-27.6c-20.538,0-37-5.8-49.4-17.399
		c-12.4-11.601-18.6-27.8-18.6-48.601c0-11.737,1.331-30.131,4-55.199c2.4-21.063,3.6-37.063,3.6-48c0-9.862-3.269-17.731-9.8-23.6
		c-6.538-5.862-16.2-9.331-29-10.4V277.185z M859.748,165.185v279.2h-56v-181.6l-74.8,181.6h-42.4l-75.2-181.6v181.6h-56v-279.2
		h63.601l88.8,207.6l88.8-207.6H859.748z M1017.542,331.185c-6.538,5.869-9.8,13.738-9.8,23.6c0,10.938,1.199,26.938,3.6,48
		c2.662,25.068,4,43.462,4,55.199c0,20.801-6.2,37-18.6,48.601c-12.4,11.6-28.869,17.399-49.4,17.399h-27.6v-47.6h16.8
		c8.531,0,14.8-1.869,18.8-5.6c4-3.738,6-9.738,6-18c0-7.2-1.068-22-3.2-44.4c-0.269-3.2-0.938-11-2-23.4
		c-1.068-12.4-1.6-23.131-1.6-32.2c0-14.4,3.462-26.2,10.399-35.4c6.932-9.2,17.463-15.263,31.601-18.2v-0.8
		c-14.138-2.663-24.669-8.663-31.601-18c-6.938-9.331-10.399-21.062-10.399-35.2c0-9.6,0.531-20.6,1.6-33
		c1.062-12.4,1.731-19.931,2-22.6c2.132-22.4,3.2-37.332,3.2-44.8c0-15.731-8.269-23.6-24.8-23.6h-16.8v-47.2h27.6
		c20.531,0,37,5.8,49.4,17.4c12.399,11.6,18.6,27.8,18.6,48.6c0,11.469-1.338,29.737-4,54.8c-2.4,21.069-3.6,37.2-3.6,48.4
		c0,9.869,3.262,17.738,9.8,23.6c6.531,5.869,16.2,9.337,29,10.4v43.6C1033.742,321.854,1024.073,325.322,1017.542,331.185z"/>
</g>
<g id="Layer_2" class="st1">
	<text transform="matrix(1 0 0 1 332.9121 444.9341)" class="st2 st3 st4">{M}</text>
</g>
<g id="Layer_3" class="st1">
	<text transform="matrix(1 0 0 1 329.3188 462.7471)" class="st2 st3 st5">{M}</text>
</g>
</svg>
